<svg width="24" height="24" viewBox="0 0 24 24" fill="none" xmlns="http://www.w3.org/2000/svg">
<path d="M23.4628 8.08372V23.757H21.8099C21.4177 23.757 21.1714 23.5692 21.0666 23.1853L20.849 21.4987C20.1632 22.2522 19.3912 22.8586 18.5432 23.318C17.6952 23.7713 16.7219 24 15.6213 24C14.759 24 14.0034 23.8612 13.3443 23.5753C12.679 23.2956 12.1328 22.8933 11.6832 22.3767C11.2355 21.8601 10.905 21.2415 10.6812 20.5084C10.4573 19.7774 10.3444 18.9607 10.3444 18.0766V5.94385C10.3444 4.75957 10.0713 3.83869 9.53132 3.18326C8.98514 2.52782 8.15151 2.20112 7.03042 2.20112C6.21117 2.20112 5.44735 2.39714 4.73897 2.78714C4.03058 3.17713 3.37148 3.70801 2.76987 4.38387V15.9245H0V0.251149H1.64673C2.03891 0.251149 2.29146 0.439 2.39618 0.822869L2.61382 2.52374C3.29346 1.77029 4.06344 1.16386 4.90528 0.698316C5.75328 0.236856 6.73475 0 7.84147 0C8.70385 0 9.45945 0.147014 10.1186 0.424706C10.7777 0.710567 11.33 1.11485 11.7653 1.63757C12.2067 2.15416 12.5435 2.78101 12.7734 3.512C12.9973 4.24298 13.1163 5.05972 13.1163 5.94385L13.1102 15.9224V18.0766C13.1102 19.2608 13.3915 20.1817 13.9377 20.829C14.4838 21.4763 15.3175 21.805 16.4262 21.805C17.2393 21.805 17.997 21.6172 18.7115 21.2333C19.4343 20.8494 20.0913 20.3206 20.695 19.6365V8.08372H23.4628Z" fill="#2F3C7E"/>
</svg>
